# xmcd CD database file
#
# Track frame offsets:
#	150
#	9111
#	20766
#	32695
#	45162
#	58707
#	72159
#	84522
#	96841
#	109555
#	120877
#	136965
#
# Disc length: 2026 seconds
#
# Revision: 0
# Processed by: cddbd v1.5.2PL0 Copyright (c) Steve Scherf et al.
# Submitted via: CDex 1.70beta3
#
DISCID=8707e80c
DTITLE=Hank Jones - The Talented Touch
DYEAR=1958
DGENRE=Jazz
TTITLE0=If I Love Again
TTITLE1=My One And Only One
TTITLE2=Don't Ever Leave Me
TTITLE3=It's Easy To Remember
TTITLE4=You Are My Love
TTITLE5=Blue Lights
TTITLE6=The Blue Room
TTITLE7=A Sunday Kind Of Love
TTITLE8=Star Eyes
TTITLE9=Let Me Know
TTITLE10=Try A Little Tenderness
TTITLE11=Easy To Love
EXTD=YEAR: 1958
EXTT0=
EXTT1=
EXTT2=
EXTT3=
EXTT4=
EXTT5=
EXTT6=
EXTT7=
EXTT8=
EXTT9=
EXTT10=
EXTT11=
PLAYORDER=
